<svg width="25" height="24" viewBox="0 0 25 24" fill="none" xmlns="http://www.w3.org/2000/svg">
<path fill-rule="evenodd" clip-rule="evenodd" d="M12.6667 22C7.14675 22 2.66675 17.51 2.66675 12C2.66675 6.48 7.14675 2 12.6667 2C18.1767 2 22.6667 6.48 22.6667 12C22.6667 17.51 18.1767 22 12.6667 22ZM16.6667 10.02C16.3667 9.73 15.8967 9.73 15.6067 10.03L12.6667 12.98L9.72675 10.03C9.43675 9.73 8.95675 9.73 8.66675 10.02C8.36675 10.32 8.36675 10.79 8.66675 11.08L12.1367 14.57C12.2767 14.71 12.4667 14.79 12.6667 14.79C12.8667 14.79 13.0567 14.71 13.1967 14.57L16.6667 11.08C16.8167 10.94 16.8867 10.75 16.8867 10.56C16.8867 10.36 16.8167 10.17 16.6667 10.02Z" fill="white"/>
</svg>
