<svg width="25" height="24" viewBox="0 0 25 24" fill="none" xmlns="http://www.w3.org/2000/svg">
<path fill-rule="evenodd" clip-rule="evenodd" d="M12.6668 22C7.14684 22 2.66684 17.51 2.66684 12C2.66684 6.48 7.14684 2 12.6668 2C18.1768 2 22.6668 6.48 22.6668 12C22.6668 17.51 18.1768 22 12.6668 22ZM16.6668 10.02C16.3668 9.73 15.8968 9.73 15.6068 10.03L12.6668 12.98L9.72684 10.03C9.43684 9.73 8.95684 9.73 8.66684 10.02C8.36684 10.32 8.36684 10.79 8.66684 11.08L12.1368 14.57C12.2768 14.71 12.4668 14.79 12.6668 14.79C12.8668 14.79 13.0568 14.71 13.1968 14.57L16.6668 11.08C16.8168 10.94 16.8868 10.75 16.8868 10.56C16.8868 10.36 16.8168 10.17 16.6668 10.02Z" fill="#000A2E"/>
</svg>
