<svg width="217" height="82" viewBox="0 0 217 82" fill="none" xmlns="http://www.w3.org/2000/svg">
<g filter="url(#filter0_f)">
<path fill-rule="evenodd" clip-rule="evenodd" d="M66.3949 27.3764C73.6901 25.6367 79.124 30.2656 85.4451 36.491C85.8527 36.8925 86.2636 37.2998 86.678 37.7106L86.6781 37.7108C88.0903 39.1108 89.544 40.5521 91.0562 41.9455C90.3602 42.6021 89.6742 43.2583 88.9971 43.906L88.4516 44.4276C84.9825 47.7425 81.7603 50.7543 78.4401 52.7239C75.1693 54.6643 71.9297 55.5162 68.3795 54.6652C64.5238 53.7409 61.6826 52.3288 58.8182 50.6644C58.0684 50.2287 57.3073 49.7692 56.521 49.2946L56.5205 49.2943C54.3267 47.97 51.9371 46.5276 49.0515 45.1533C47.6242 44.4735 46.4857 43.8028 45.3485 43.1329L45.3484 43.1328C44.8034 42.8117 44.2586 42.4908 43.6824 42.1691C42.6206 41.5763 41.5202 41.0248 40.2569 40.5711C41.2056 40.1351 42.1135 39.6738 42.9265 39.2385C44.0742 38.624 45.0712 38.0401 45.7817 37.6097C46.1374 37.3942 46.4223 37.2166 46.6196 37.092C46.7182 37.0297 46.795 36.9806 46.8479 36.9466L46.909 36.9071L46.9256 36.8964L46.9303 36.8933L46.9318 36.8923L46.9323 36.892C46.9325 36.8919 46.9326 36.8918 46.1151 35.6406L46.9326 36.8918L46.9407 36.8865L46.9408 36.8864L46.9408 36.8864L46.9419 36.8857L46.9472 36.8821L46.9705 36.8668L47.0657 36.8044C47.1505 36.7491 47.2771 36.6668 47.4419 36.561C47.7714 36.3493 48.2534 36.0433 48.8582 35.6695C50.0685 34.9213 51.767 33.9035 53.718 32.8259C57.6569 30.6504 62.4901 28.3077 66.3949 27.3764ZM28.9157 42.69C30.5817 42.756 32.5911 42.7514 34.3491 42.4975C35.3024 42.5331 36.2218 42.6179 37.0085 42.7759C39.0941 43.1947 40.6371 43.9047 42.2199 44.7885C42.6868 45.0491 43.175 45.3364 43.6902 45.6396L43.6902 45.6396C44.8809 46.3402 46.2153 47.1254 47.7615 47.8618C50.5027 49.1673 52.7068 50.4977 54.8656 51.8008L54.866 51.801C55.6786 52.2916 56.4849 52.7783 57.311 53.2583C60.3091 55.0004 63.433 56.5644 67.6801 57.5825C72.2124 58.669 76.256 57.5077 79.9707 55.3041C81.6775 54.2916 83.341 53.043 84.977 51.6676L101.039 49.0722C103.171 50.0792 105.461 50.8135 107.949 51.1434C116.229 52.2415 126.56 49.9622 134.668 47.5C138.754 46.2594 142.335 44.953 144.895 43.9569C146.176 43.4586 147.203 43.0372 147.911 42.7395C148.052 42.6804 148.18 42.6261 148.296 42.577L148.306 42.582L148.367 42.6129L148.41 42.6347L148.414 42.6367L148.42 42.6398L148.446 42.6537C148.474 42.6682 148.514 42.6891 148.566 42.7159C148.67 42.7695 148.821 42.8466 149.014 42.9433C149.402 43.1367 149.961 43.409 150.657 43.7293C152.048 44.369 153.994 45.2041 156.215 45.9841C160.575 47.5151 166.307 48.9498 170.971 47.9759C173.494 47.449 176.446 46.0594 178.679 44.8701C179.815 44.2651 180.802 43.6916 181.506 43.2691C181.818 43.0819 182.075 42.9238 182.265 42.8053H192.999V42.3937H193V39.3937H182.087C181.893 39.2735 181.63 39.1123 181.309 38.9209C180.595 38.4941 179.592 37.9147 178.438 37.3035C176.17 36.1017 173.175 34.6989 170.616 34.1674C165.887 33.185 160.071 34.6322 155.643 36.1793C153.387 36.9672 151.411 37.8109 149.999 38.4572C149.292 38.7807 148.724 39.0558 148.33 39.2512C148.329 39.2519 148.328 39.2525 148.326 39.2532C147.751 38.978 147.02 38.6346 146.157 38.2428C143.902 37.2187 140.745 35.8615 137.132 34.5289C129.968 31.8858 120.79 29.2526 113.307 29.6747C108.086 29.9691 103.569 32.0541 99.5294 34.8438C98.4745 35.5722 97.4457 36.3535 96.4402 37.1687L89.9949 36.7714C89.5983 36.3806 89.2022 35.9881 88.8057 35.5951L88.8056 35.5951C88.3879 35.1811 87.9697 34.7668 87.5502 34.3536C81.4317 28.3277 74.8253 22.2818 65.699 24.4583C61.3724 25.4901 56.2382 28.0068 52.2676 30.1998C50.2638 31.3065 48.522 32.3503 47.2807 33.1177C46.6597 33.5016 46.163 33.8168 45.8204 34.0369C45.6491 34.147 45.5162 34.2333 45.4255 34.2925L45.3216 34.3606L45.2941 34.3787L45.292 34.3802L45.2919 34.3802L45.2916 34.3804L45.2891 34.382L45.2867 34.3836L45.2771 34.3898L45.2254 34.4232C45.179 34.453 45.1089 34.4978 45.0174 34.5556C44.8343 34.6713 44.5653 34.839 44.2273 35.0438C43.5504 35.4539 42.6006 36.01 41.5105 36.5937C39.2895 37.7828 36.6353 39.004 34.5394 39.4228C34.419 39.4468 34.2954 39.4692 34.1692 39.49C33.0827 39.4594 32.0106 39.4849 31.0748 39.5298C30.2115 39.5711 29.4387 39.6305 28.8405 39.6843C28.7766 39.6815 28.713 39.6786 28.6498 39.6756C27.6988 39.6302 26.8601 39.5621 26.2598 39.5054C25.9601 39.4771 25.7208 39.4517 25.5578 39.4335C25.4763 39.4245 25.414 39.4172 25.3728 39.4123L25.3271 39.4069L25.3166 39.4056L25.3145 39.4053L25.3144 39.4053C25.3145 39.4053 25.3146 39.4053 25.1282 40.8937C24.9418 42.3821 24.942 42.3821 24.9422 42.3821L24.9426 42.3822L24.9441 42.3823L24.9485 42.3829L24.9638 42.3848L25.0195 42.3915C25.0675 42.3972 25.1369 42.4052 25.2259 42.4151C25.4037 42.4349 25.6597 42.4621 25.9776 42.4921C26.4858 42.5401 27.155 42.5958 27.9185 42.6408C27.9377 42.7936 27.9376 42.7936 27.9376 42.7936L27.9377 42.7936L27.9397 42.7933L27.9499 42.792L27.9948 42.7866C28.0353 42.7818 28.0966 42.7746 28.1767 42.7657C28.337 42.7477 28.5724 42.7226 28.8673 42.6946C28.8833 42.6931 28.8994 42.6916 28.9157 42.69ZM90.0361 36.812L85.4451 36.491L89.9949 36.7714C90.0087 36.785 90.0224 36.7985 90.0361 36.812ZM96.3369 37.2526L90.0361 36.812C91.1033 37.8632 92.1739 38.9016 93.2646 39.9011C94.2656 38.9962 95.2886 38.1062 96.3369 37.2526ZM100.866 37.5693C99.0284 38.8688 97.2656 40.3396 95.5381 41.8908C96.0771 42.338 96.6233 42.7722 97.1784 43.1905C99.9734 45.2964 102.928 46.9436 106.218 47.7643L144.316 40.9618C144.42 40.9209 144.522 40.8806 144.622 40.841C144.44 40.7591 144.254 40.6753 144.061 40.5897L100.866 37.5693ZM147.823 40.3356L145.742 40.7072L148.409 40.8937L149.298 40.9283C149.401 40.7267 149.482 40.5675 149.546 40.4418L147.823 40.3356ZM150.895 40.525C151.151 40.6488 151.448 40.7898 151.781 40.9438C152.011 40.8408 152.254 40.734 152.508 40.6244L171.371 41.787L151.973 41.0323C153.298 41.6402 155.131 42.4237 157.209 43.1536C161.515 44.6654 166.562 45.8318 170.358 45.0392C172.436 44.6053 175.068 43.3939 177.269 42.2222C177.309 42.2007 177.349 42.1793 177.389 42.1579L171.371 41.787L177.626 42.0303C178.2 41.7191 178.728 41.4205 179.189 41.1532C178.584 40.8012 177.848 40.3858 177.034 39.9545C174.798 38.7702 172.121 37.5441 170.006 37.1047C166.141 36.3018 161.006 37.4835 156.632 39.0115C155.09 39.5503 153.681 40.118 152.508 40.6244L150.895 40.525ZM138.967 42.9434L107.47 48.033C107.758 48.0849 108.049 48.1305 108.343 48.1695C115.942 49.1772 125.743 47.0751 133.797 44.6294C135.641 44.0694 137.381 43.4953 138.967 42.9434ZM142.775 40.0245L101.034 37.4518C101.1 37.4051 101.167 37.3586 101.234 37.3124C104.995 34.7155 108.984 32.9232 113.476 32.6699C120.299 32.285 128.978 34.7183 136.094 37.3435C138.594 38.2658 140.874 39.2011 142.775 40.0245ZM100.463 48.7917C98.6605 47.8872 96.9719 46.7911 95.3731 45.5865C94.6736 45.0594 93.9876 44.5085 93.3138 43.9409C92.5463 44.663 91.7825 45.3934 91.0186 46.1238L90.5242 46.5965C88.7495 48.2923 86.9633 49.986 85.1437 51.527L78.4401 52.7239L84.977 51.6676C85.0326 51.6209 85.0882 51.574 85.1437 51.527L100.463 48.7917Z" fill="#F10F47"/>
</g>
<path fill-rule="evenodd" clip-rule="evenodd" d="M66.3949 27.3764C73.6901 25.6367 79.124 30.2656 85.4451 36.491C85.8527 36.8925 86.2636 37.2998 86.678 37.7106L86.6781 37.7108C88.0903 39.1108 89.544 40.5521 91.0562 41.9455C90.3602 42.6021 89.6742 43.2583 88.9971 43.906L88.4516 44.4276C84.9825 47.7425 81.7603 50.7543 78.4401 52.7239C75.1693 54.6643 71.9297 55.5162 68.3795 54.6652C64.5238 53.7409 61.6826 52.3288 58.8182 50.6644C58.0684 50.2287 57.3073 49.7692 56.521 49.2946L56.5205 49.2943C54.3267 47.97 51.9371 46.5276 49.0515 45.1533C47.6242 44.4735 46.4857 43.8028 45.3485 43.1329L45.3484 43.1328C44.8034 42.8117 44.2586 42.4908 43.6824 42.1691C42.6206 41.5763 41.5202 41.0248 40.2569 40.5711C41.2056 40.1351 42.1135 39.6738 42.9265 39.2385C44.0742 38.624 45.0712 38.0401 45.7817 37.6097C46.1374 37.3942 46.4223 37.2166 46.6196 37.092C46.7182 37.0297 46.795 36.9806 46.8479 36.9466L46.909 36.9071L46.9256 36.8964L46.9303 36.8933L46.9318 36.8923L46.9323 36.892C46.9325 36.8919 46.9326 36.8918 46.1151 35.6406L46.9326 36.8918L46.9407 36.8865L46.9408 36.8864L46.9408 36.8864L46.9419 36.8857L46.9472 36.8821L46.9705 36.8668L47.0657 36.8044C47.1505 36.7491 47.2771 36.6668 47.4419 36.561C47.7714 36.3493 48.2534 36.0433 48.8582 35.6695C50.0685 34.9213 51.767 33.9035 53.718 32.8259C57.6569 30.6504 62.4901 28.3077 66.3949 27.3764ZM28.9157 42.69C30.5817 42.756 32.5911 42.7514 34.3491 42.4975C35.3024 42.5331 36.2218 42.6179 37.0085 42.7759C39.0941 43.1947 40.6371 43.9047 42.2199 44.7885C42.6868 45.0491 43.175 45.3364 43.6902 45.6396L43.6902 45.6396C44.8809 46.3402 46.2153 47.1254 47.7615 47.8618C50.5027 49.1673 52.7068 50.4977 54.8656 51.8008L54.866 51.801C55.6786 52.2916 56.4849 52.7783 57.311 53.2583C60.3091 55.0004 63.433 56.5644 67.6801 57.5825C72.2124 58.669 76.256 57.5077 79.9707 55.3041C81.6775 54.2916 83.341 53.043 84.977 51.6676L101.039 49.0722C103.171 50.0792 105.461 50.8135 107.949 51.1434C116.229 52.2415 126.56 49.9622 134.668 47.5C138.754 46.2594 142.335 44.953 144.895 43.9569C146.176 43.4586 147.203 43.0372 147.911 42.7395C148.052 42.6804 148.18 42.6261 148.296 42.577L148.306 42.582L148.367 42.6129L148.41 42.6347L148.414 42.6367L148.42 42.6398L148.446 42.6537C148.474 42.6682 148.514 42.6891 148.566 42.7159C148.67 42.7695 148.821 42.8466 149.014 42.9433C149.402 43.1367 149.961 43.409 150.657 43.7293C152.048 44.369 153.994 45.2041 156.215 45.9841C160.575 47.5151 166.307 48.9498 170.971 47.9759C173.494 47.449 176.446 46.0594 178.679 44.8701C179.815 44.2651 180.802 43.6916 181.506 43.2691C181.818 43.0819 182.075 42.9238 182.265 42.8053H192.999V42.3937H193V39.3937H182.087C181.893 39.2735 181.63 39.1123 181.309 38.9209C180.595 38.4941 179.592 37.9147 178.438 37.3035C176.17 36.1017 173.175 34.6989 170.616 34.1674C165.887 33.185 160.071 34.6322 155.643 36.1793C153.387 36.9672 151.411 37.8109 149.999 38.4572C149.292 38.7807 148.724 39.0558 148.33 39.2512C148.329 39.2519 148.328 39.2525 148.326 39.2532C147.751 38.978 147.02 38.6346 146.157 38.2428C143.902 37.2187 140.745 35.8615 137.132 34.5289C129.968 31.8858 120.79 29.2526 113.307 29.6747C108.086 29.9691 103.569 32.0541 99.5294 34.8438C98.4745 35.5722 97.4457 36.3535 96.4402 37.1687L89.9949 36.7714C89.5983 36.3806 89.2022 35.9881 88.8057 35.5951L88.8056 35.5951C88.3879 35.1811 87.9697 34.7668 87.5502 34.3536C81.4317 28.3277 74.8253 22.2818 65.699 24.4583C61.3724 25.4901 56.2382 28.0068 52.2676 30.1998C50.2638 31.3065 48.522 32.3503 47.2807 33.1177C46.6597 33.5016 46.163 33.8168 45.8204 34.0369C45.6491 34.147 45.5162 34.2333 45.4255 34.2925L45.3216 34.3606L45.2941 34.3787L45.292 34.3802L45.2919 34.3802L45.2916 34.3804L45.2891 34.382L45.2867 34.3836L45.2771 34.3898L45.2254 34.4232C45.179 34.453 45.1089 34.4978 45.0174 34.5556C44.8343 34.6713 44.5653 34.839 44.2273 35.0438C43.5504 35.4539 42.6006 36.01 41.5105 36.5937C39.2895 37.7828 36.6353 39.004 34.5394 39.4228C34.419 39.4468 34.2954 39.4692 34.1692 39.49C33.0827 39.4594 32.0106 39.4849 31.0748 39.5298C30.2115 39.5711 29.4387 39.6305 28.8405 39.6843C28.7766 39.6815 28.713 39.6786 28.6498 39.6756C27.6988 39.6302 26.8601 39.5621 26.2598 39.5054C25.9601 39.4771 25.7208 39.4517 25.5578 39.4335C25.4763 39.4245 25.414 39.4172 25.3728 39.4123L25.3271 39.4069L25.3166 39.4056L25.3145 39.4053L25.3144 39.4053C25.3145 39.4053 25.3146 39.4053 25.1282 40.8937C24.9418 42.3821 24.942 42.3821 24.9422 42.3821L24.9426 42.3822L24.9441 42.3823L24.9485 42.3829L24.9638 42.3848L25.0195 42.3915C25.0675 42.3972 25.1369 42.4052 25.2259 42.4151C25.4037 42.4349 25.6597 42.4621 25.9776 42.4921C26.4858 42.5401 27.155 42.5958 27.9185 42.6408C27.9377 42.7936 27.9376 42.7936 27.9376 42.7936L27.9377 42.7936L27.9397 42.7933L27.9499 42.792L27.9948 42.7866C28.0353 42.7818 28.0966 42.7746 28.1767 42.7657C28.337 42.7477 28.5724 42.7226 28.8673 42.6946C28.8833 42.6931 28.8994 42.6916 28.9157 42.69ZM90.0361 36.812L85.4451 36.491L89.9949 36.7714C90.0087 36.785 90.0224 36.7985 90.0361 36.812ZM96.3369 37.2526L90.0361 36.812C91.1033 37.8632 92.1739 38.9016 93.2646 39.9011C94.2656 38.9962 95.2886 38.1062 96.3369 37.2526ZM100.866 37.5693C99.0284 38.8688 97.2656 40.3396 95.5381 41.8908C96.0771 42.338 96.6233 42.7722 97.1784 43.1905C99.9734 45.2964 102.928 46.9436 106.218 47.7643L144.316 40.9618C144.42 40.9209 144.522 40.8806 144.622 40.841C144.44 40.7591 144.254 40.6753 144.061 40.5897L100.866 37.5693ZM147.823 40.3356L145.742 40.7072L148.409 40.8937L149.298 40.9283C149.401 40.7267 149.482 40.5675 149.546 40.4418L147.823 40.3356ZM150.895 40.525C151.151 40.6488 151.448 40.7898 151.781 40.9438C152.011 40.8408 152.254 40.734 152.508 40.6244L171.371 41.787L151.973 41.0323C153.298 41.6402 155.131 42.4237 157.209 43.1536C161.515 44.6654 166.562 45.8318 170.358 45.0392C172.436 44.6053 175.068 43.3939 177.269 42.2222C177.309 42.2007 177.349 42.1793 177.389 42.1579L171.371 41.787L177.626 42.0303C178.2 41.7191 178.728 41.4205 179.189 41.1532C178.584 40.8012 177.848 40.3858 177.034 39.9545C174.798 38.7702 172.121 37.5441 170.006 37.1047C166.141 36.3018 161.006 37.4835 156.632 39.0115C155.09 39.5503 153.681 40.118 152.508 40.6244L150.895 40.525ZM138.967 42.9434L107.47 48.033C107.758 48.0849 108.049 48.1305 108.343 48.1695C115.942 49.1772 125.743 47.0751 133.797 44.6294C135.641 44.0694 137.381 43.4953 138.967 42.9434ZM142.775 40.0245L101.034 37.4518C101.1 37.4051 101.167 37.3586 101.234 37.3124C104.995 34.7155 108.984 32.9232 113.476 32.6699C120.299 32.285 128.978 34.7183 136.094 37.3435C138.594 38.2658 140.874 39.2011 142.775 40.0245ZM100.463 48.7917C98.6605 47.8872 96.9719 46.7911 95.3731 45.5865C94.6736 45.0594 93.9876 44.5085 93.3138 43.9409C92.5463 44.663 91.7825 45.3934 91.0186 46.1238L90.5242 46.5965C88.7495 48.2923 86.9633 49.986 85.1437 51.527L78.4401 52.7239L84.977 51.6676C85.0326 51.6209 85.0882 51.574 85.1437 51.527L100.463 48.7917Z" fill="#F10F47"/>
<path d="M188 41.6773H177.268C177.268 41.6773 170.957 45.8255 166.536 46.7651C158.405 48.4927 148.379 39.8829 133.211 38.561C126.712 37.9946 125.257 38 111.492 38C92.9638 38 93.8605 42.8495 73.4428 49.937C59.0463 54.9345 40.6557 40.6489 37.0005 41.3657" stroke="url(#paint0_linear)" stroke-opacity="0.2" stroke-width="3"/>
<path d="M34.0002 41.3227H44.164C44.164 41.3227 50.1404 37.1745 54.3278 36.2349C62.0273 34.5073 71.5227 43.1171 85.887 44.439C92.0418 45.0054 93.4197 45 106.455 45C124.002 45 123.153 40.1505 142.489 33.063C156.122 28.0655 173.539 42.3511 177 41.6343" stroke="url(#paint1_linear)" stroke-opacity="0.2" stroke-width="3"/>
<defs>
<filter id="filter0_f" x="0.942139" y="0.00488281" width="216.058" height="81.9904" filterUnits="userSpaceOnUse" color-interpolation-filters="sRGB">
<feFlood flood-opacity="0" result="BackgroundImageFix"/>
<feBlend mode="normal" in="SourceGraphic" in2="BackgroundImageFix" result="shape"/>
<feGaussianBlur stdDeviation="12" result="effect1_foregroundBlur"/>
</filter>
<linearGradient id="paint0_linear" x1="37.0005" y1="50.0545" x2="45.2618" y2="9.16268" gradientUnits="userSpaceOnUse">
<stop stop-color="#F10F47"/>
<stop offset="1" stop-color="#FF4775"/>
</linearGradient>
<linearGradient id="paint1_linear" x1="177" y1="32.9455" x2="168.316" y2="73.6537" gradientUnits="userSpaceOnUse">
<stop stop-color="#F10F47"/>
<stop offset="1" stop-color="#FF4775"/>
</linearGradient>
</defs>
</svg>
