<svg width="61" height="44" viewBox="0 0 61 44" fill="none" xmlns="http://www.w3.org/2000/svg">
<path d="M20.3088 0V44H40.6165V0H20.3088ZM33.6476 26.3831L30.4627 24.0697L27.2778 26.3831L28.4945 22.6397L25.3096 20.3263H29.2459L30.4627 16.5812L31.6795 20.3246H35.6158L32.4308 22.638L33.6476 26.3831Z" fill="#CC212D"/>
<path d="M6.76923 0C3.03092 0 0 3.03092 0 6.76923V37.2308C0 40.9691 3.03092 44 6.76923 44H20.3077V0H6.76923Z" fill="#288541"/>
<path d="M54.154 0H40.6155V44H54.154C57.8923 44 60.9232 40.9691 60.9232 37.2308V6.76923C60.9232 3.03092 57.8923 0 54.154 0ZM31.6784 20.3263L30.4617 16.5812L29.2449 20.3263H25.3086L28.4935 22.6397L27.2767 26.3831L30.4617 24.0697L33.6466 26.3831L32.4298 22.6397L35.6147 20.3263H31.6784Z" fill="#FEE833"/>
</svg>
