<svg width="62" height="44" viewBox="0 0 62 44" fill="none" xmlns="http://www.w3.org/2000/svg">
<path d="M7.69233 44H55.077C58.8153 44 61.8462 40.9691 61.8462 37.2308V10.5769L6.36387 43.8663C6.79371 43.9509 7.2371 44 7.69233 44ZM55.077 0H7.69233C3.95402 0 0.923096 3.03092 0.923096 6.76923V33.4231L56.4054 0.133692C55.9756 0.0490769 55.5322 0 55.077 0ZM17.22 18.6492L12.0416 14.6892L6.8631 18.6492L8.8431 12.2523L3.66463 8.29231H10.0616L12.0416 1.89538L14.0216 8.29231H20.4185L15.24 12.2523L17.22 18.6492Z" fill="#007FFF"/>
<path d="M14.0216 8.2924L12.0416 1.89548L10.0616 8.2924H3.66463L8.8431 12.2524L6.8631 18.6493L12.0416 14.6893L17.22 18.6493L15.24 12.2524L20.4185 8.2924H14.0216ZM6.36387 43.8664L61.8462 10.577V8.2924L4.09279 42.9441C4.77987 43.3773 5.5414 43.7023 6.36387 43.8664ZM56.4054 0.133789L0.923096 33.4232V35.7078L58.6765 1.0561C57.9894 0.622866 57.2279 0.297943 56.4054 0.133789Z" fill="#F7D618"/>
<path d="M58.6765 1.05664L0.923096 35.7083V37.2314C0.923096 39.643 2.19402 41.7465 4.09279 42.9446L61.8462 8.29295V6.76987C61.8462 4.35833 60.5753 2.25479 58.6765 1.05664Z" fill="#CE1021"/>
</svg>
