<svg width="119" height="115" viewBox="0 0 119 115" fill="none" xmlns="http://www.w3.org/2000/svg">
<circle cx="2.52957" cy="2.52957" r="2.52957" fill="white" fill-opacity="0.16"/>
<circle cx="2.52957" cy="18.2124" r="2.52957" fill="white" fill-opacity="0.16"/>
<circle cx="2.52957" cy="33.8968" r="2.52957" fill="white" fill-opacity="0.16"/>
<circle cx="2.52957" cy="49.5794" r="2.52957" fill="white" fill-opacity="0.16"/>
<circle cx="2.52957" cy="65.2627" r="2.52957" fill="white" fill-opacity="0.16"/>
<circle cx="2.52957" cy="80.9463" r="2.52957" fill="white" fill-opacity="0.16"/>
<circle cx="2.52957" cy="96.6297" r="2.52957" fill="white" fill-opacity="0.16"/>
<circle cx="2.52957" cy="112.313" r="2.52957" fill="white" fill-opacity="0.16"/>
<circle cx="16.6956" cy="2.52957" r="2.52957" fill="white" fill-opacity="0.16"/>
<circle cx="16.6956" cy="18.2124" r="2.52957" fill="white" fill-opacity="0.16"/>
<circle cx="16.6956" cy="33.8968" r="2.52957" fill="white" fill-opacity="0.16"/>
<circle cx="16.6956" cy="49.5794" r="2.52957" fill="white" fill-opacity="0.16"/>
<circle cx="16.6956" cy="65.2627" r="2.52957" fill="white" fill-opacity="0.16"/>
<circle cx="16.6956" cy="80.9463" r="2.52957" fill="white" fill-opacity="0.16"/>
<circle cx="16.6956" cy="96.6297" r="2.52957" fill="white" fill-opacity="0.16"/>
<circle cx="16.6956" cy="112.313" r="2.52957" fill="white" fill-opacity="0.16"/>
<circle cx="30.8606" cy="2.52957" r="2.52957" fill="white" fill-opacity="0.16"/>
<circle cx="30.8606" cy="18.2124" r="2.52957" fill="white" fill-opacity="0.16"/>
<circle cx="30.8606" cy="33.8968" r="2.52957" fill="white" fill-opacity="0.16"/>
<circle cx="30.8606" cy="49.5794" r="2.52957" fill="white" fill-opacity="0.16"/>
<circle cx="30.8606" cy="65.2627" r="2.52957" fill="white" fill-opacity="0.16"/>
<circle cx="30.8606" cy="80.9463" r="2.52957" fill="white" fill-opacity="0.16"/>
<circle cx="30.8606" cy="96.6297" r="2.52957" fill="white" fill-opacity="0.16"/>
<circle cx="30.8606" cy="112.313" r="2.52957" fill="white" fill-opacity="0.16"/>
<circle cx="45.0264" cy="2.52957" r="2.52957" fill="white" fill-opacity="0.16"/>
<circle cx="45.0264" cy="18.2124" r="2.52957" fill="white" fill-opacity="0.16"/>
<circle cx="45.0264" cy="33.8968" r="2.52957" fill="white" fill-opacity="0.16"/>
<circle cx="45.0264" cy="49.5794" r="2.52957" fill="white" fill-opacity="0.16"/>
<circle cx="45.0264" cy="65.2627" r="2.52957" fill="white" fill-opacity="0.16"/>
<circle cx="45.0264" cy="80.9463" r="2.52957" fill="white" fill-opacity="0.16"/>
<circle cx="45.0264" cy="96.6297" r="2.52957" fill="white" fill-opacity="0.16"/>
<circle cx="45.0264" cy="112.313" r="2.52957" fill="white" fill-opacity="0.16"/>
<circle cx="59.1922" cy="2.52957" r="2.52957" fill="white" fill-opacity="0.16"/>
<circle cx="59.1922" cy="18.2124" r="2.52957" fill="white" fill-opacity="0.16"/>
<circle cx="59.1922" cy="33.8968" r="2.52957" fill="white" fill-opacity="0.16"/>
<circle cx="59.1922" cy="49.5794" r="2.52957" fill="white" fill-opacity="0.16"/>
<circle cx="59.1922" cy="65.2627" r="2.52957" fill="white" fill-opacity="0.16"/>
<circle cx="59.1922" cy="80.9463" r="2.52957" fill="white" fill-opacity="0.16"/>
<circle cx="59.1922" cy="96.6297" r="2.52957" fill="white" fill-opacity="0.16"/>
<circle cx="59.1922" cy="112.313" r="2.52957" fill="white" fill-opacity="0.16"/>
<circle cx="73.3577" cy="2.52957" r="2.52957" fill="white" fill-opacity="0.16"/>
<circle cx="73.3577" cy="18.2124" r="2.52957" fill="white" fill-opacity="0.16"/>
<circle cx="73.3577" cy="33.8968" r="2.52957" fill="white" fill-opacity="0.16"/>
<circle cx="73.3577" cy="49.5794" r="2.52957" fill="white" fill-opacity="0.16"/>
<circle cx="73.3577" cy="65.2627" r="2.52957" fill="white" fill-opacity="0.16"/>
<circle cx="73.3577" cy="80.9463" r="2.52957" fill="white" fill-opacity="0.16"/>
<circle cx="73.3577" cy="96.6297" r="2.52957" fill="white" fill-opacity="0.16"/>
<circle cx="73.3577" cy="112.313" r="2.52957" fill="white" fill-opacity="0.16"/>
<circle cx="87.5232" cy="2.52957" r="2.52957" fill="white" fill-opacity="0.16"/>
<circle cx="87.5232" cy="18.2124" r="2.52957" fill="white" fill-opacity="0.16"/>
<circle cx="87.5232" cy="33.8968" r="2.52957" fill="white" fill-opacity="0.16"/>
<circle cx="87.5232" cy="49.5794" r="2.52957" fill="white" fill-opacity="0.16"/>
<circle cx="87.5232" cy="65.2627" r="2.52957" fill="white" fill-opacity="0.16"/>
<circle cx="87.5232" cy="80.9463" r="2.52957" fill="white" fill-opacity="0.16"/>
<circle cx="87.5232" cy="96.6297" r="2.52957" fill="white" fill-opacity="0.16"/>
<circle cx="87.5232" cy="112.313" r="2.52957" fill="white" fill-opacity="0.16"/>
<circle cx="101.689" cy="2.52957" r="2.52957" fill="white" fill-opacity="0.16"/>
<circle cx="101.689" cy="18.2124" r="2.52957" fill="white" fill-opacity="0.16"/>
<circle cx="101.689" cy="33.8968" r="2.52957" fill="white" fill-opacity="0.16"/>
<circle cx="101.689" cy="49.5794" r="2.52957" fill="white" fill-opacity="0.16"/>
<circle cx="101.689" cy="65.2627" r="2.52957" fill="white" fill-opacity="0.16"/>
<circle cx="101.689" cy="80.9463" r="2.52957" fill="white" fill-opacity="0.16"/>
<circle cx="101.689" cy="96.6297" r="2.52957" fill="white" fill-opacity="0.16"/>
<circle cx="101.689" cy="112.313" r="2.52957" fill="white" fill-opacity="0.16"/>
<circle cx="115.854" cy="2.52957" r="2.52957" fill="white" fill-opacity="0.16"/>
<circle cx="115.854" cy="18.2124" r="2.52957" fill="white" fill-opacity="0.16"/>
<circle cx="115.854" cy="33.8968" r="2.52957" fill="white" fill-opacity="0.16"/>
<circle cx="115.854" cy="49.5794" r="2.52957" fill="white" fill-opacity="0.16"/>
<circle cx="115.854" cy="65.2627" r="2.52957" fill="white" fill-opacity="0.16"/>
<circle cx="115.854" cy="80.9463" r="2.52957" fill="white" fill-opacity="0.16"/>
<circle cx="115.854" cy="96.6297" r="2.52957" fill="white" fill-opacity="0.16"/>
<circle cx="115.854" cy="112.313" r="2.52957" fill="white" fill-opacity="0.16"/>
</svg>
