<svg width="40" height="40" viewBox="0 0 40 40" fill="none" xmlns="http://www.w3.org/2000/svg">
<rect y="0.000244141" width="40" height="40" rx="8" fill="#F10F47"/>
<path fill-rule="evenodd" clip-rule="evenodd" d="M24.9395 11.0002C26.2805 11.0002 27.5705 11.5302 28.5195 12.4812C29.4695 13.4302 30.0005 14.7102 30.0005 16.0502V23.9502C30.0005 26.7402 27.7305 29.0002 24.9395 29.0002H15.0605C12.2695 29.0002 10.0005 26.7402 10.0005 23.9502V16.0502C10.0005 13.2602 12.2595 11.0002 15.0605 11.0002H24.9395ZM26.5305 17.5402L26.6105 17.4602C26.8495 17.1702 26.8495 16.7502 26.5995 16.4602C26.4605 16.3112 26.2695 16.2202 26.0705 16.2002C25.8605 16.1892 25.6605 16.2602 25.5095 16.4002L21.0005 20.0002C20.4205 20.4812 19.5895 20.4812 19.0005 20.0002L14.5005 16.4002C14.1895 16.1702 13.7595 16.2002 13.5005 16.4702C13.2305 16.7402 13.2005 17.1702 13.4295 17.4702L13.5605 17.6002L18.1105 21.1502C18.6705 21.5902 19.3495 21.8302 20.0605 21.8302C20.7695 21.8302 21.4605 21.5902 22.0195 21.1502L26.5305 17.5402Z" fill="white"/>
</svg>
