<svg width="48" height="48" viewBox="0 0 48 48" fill="none" xmlns="http://www.w3.org/2000/svg">
<g filter="url(#filter0_ddd)">
<rect x="10" y="7" width="28" height="28" rx="8" fill="#F10F47"/>
<path fill-rule="evenodd" clip-rule="evenodd" d="M24.1748 24.2174H23.825C21.4217 24.2174 19.4736 22.2927 19.4736 19.9203V15.2971C19.4736 12.9237 21.4217 11 23.825 11H24.1748C26.5781 11 28.5272 12.9237 28.5272 15.2971V19.9203C28.5272 22.2927 26.5781 24.2174 24.1748 24.2174ZM30.5626 19.7829C30.5626 19.2539 30.9966 18.8263 31.5313 18.8263C32.066 18.8263 32.5 19.2539 32.5 19.7829C32.5 24.0866 29.2006 27.6404 24.9692 28.1178V30.0434C24.9692 30.5714 24.5352 31 24.0005 31C23.4648 31 23.0318 30.5714 23.0318 30.0434V28.1178C18.7994 27.6404 15.5 24.0866 15.5 19.7829C15.5 19.2539 15.934 18.8263 16.4687 18.8263C17.0034 18.8263 17.4374 19.2539 17.4374 19.7829C17.4374 23.3558 20.3814 26.2629 24.0005 26.2629C27.6186 26.2629 30.5626 23.3558 30.5626 19.7829Z" fill="#000A2E"/>
</g>
<defs>
<filter id="filter0_ddd" x="0" y="0" width="48" height="48" filterUnits="userSpaceOnUse" color-interpolation-filters="sRGB">
<feFlood flood-opacity="0" result="BackgroundImageFix"/>
<feColorMatrix in="SourceAlpha" type="matrix" values="0 0 0 0 0 0 0 0 0 0 0 0 0 0 0 0 0 0 127 0"/>
<feOffset dy="2"/>
<feGaussianBlur stdDeviation="1"/>
<feColorMatrix type="matrix" values="0 0 0 0 0 0 0 0 0 0 0 0 0 0 0 0 0 0 0.12 0"/>
<feBlend mode="normal" in2="BackgroundImageFix" result="effect1_dropShadow"/>
<feColorMatrix in="SourceAlpha" type="matrix" values="0 0 0 0 0 0 0 0 0 0 0 0 0 0 0 0 0 0 127 0"/>
<feOffset dy="3"/>
<feGaussianBlur stdDeviation="5"/>
<feColorMatrix type="matrix" values="0 0 0 0 0 0 0 0 0 0.0377192 0 0 0 0 0.179167 0 0 0 0.2 0"/>
<feBlend mode="normal" in2="effect1_dropShadow" result="effect2_dropShadow"/>
<feColorMatrix in="SourceAlpha" type="matrix" values="0 0 0 0 0 0 0 0 0 0 0 0 0 0 0 0 0 0 127 0"/>
<feOffset dy="-2"/>
<feGaussianBlur stdDeviation="2"/>
<feColorMatrix type="matrix" values="0 0 0 0 0 0 0 0 0 0 0 0 0 0 0 0 0 0 0.11 0"/>
<feBlend mode="normal" in2="effect2_dropShadow" result="effect3_dropShadow"/>
<feBlend mode="normal" in="SourceGraphic" in2="effect3_dropShadow" result="shape"/>
</filter>
</defs>
</svg>
