<svg width="40" height="40" viewBox="0 0 40 40" fill="none" xmlns="http://www.w3.org/2000/svg">
<rect y="0.000244141" width="40" height="40" rx="8" fill="#F10F47"/>
<path fill-rule="evenodd" clip-rule="evenodd" d="M24.9394 11.0002C26.2804 11.0002 27.5704 11.5302 28.5194 12.4812C29.4694 13.4302 30.0004 14.7102 30.0004 16.0502V23.9502C30.0004 26.7402 27.7304 29.0002 24.9394 29.0002H15.0604C12.2694 29.0002 10.0004 26.7402 10.0004 23.9502V16.0502C10.0004 13.2602 12.2594 11.0002 15.0604 11.0002H24.9394ZM26.5304 17.5402L26.6104 17.4602C26.8494 17.1702 26.8494 16.7502 26.5994 16.4602C26.4604 16.3112 26.2694 16.2202 26.0704 16.2002C25.8604 16.1892 25.6604 16.2602 25.5094 16.4002L21.0004 20.0002C20.4204 20.4812 19.5894 20.4812 19.0004 20.0002L14.5004 16.4002C14.1894 16.1702 13.7594 16.2002 13.5004 16.4702C13.2304 16.7402 13.2004 17.1702 13.4294 17.4702L13.5604 17.6002L18.1104 21.1502C18.6704 21.5902 19.3494 21.8302 20.0604 21.8302C20.7694 21.8302 21.4604 21.5902 22.0194 21.1502L26.5304 17.5402Z" fill="#000A2E"/>
</svg>
