<svg width="21" height="20" viewBox="0 0 21 20" fill="none" xmlns="http://www.w3.org/2000/svg">
<path fill-rule="evenodd" clip-rule="evenodd" d="M2.87325 0H6.25325C7.66325 0 8.79325 1.15 8.79325 2.561V5.97C8.79325 7.39 7.66325 8.53 6.25325 8.53H2.87325C1.47325 8.53 0.333252 7.39 0.333252 5.97V2.561C0.333252 1.15 1.47325 0 2.87325 0ZM2.87325 11.4697H6.25325C7.66325 11.4697 8.79325 12.6107 8.79325 14.0307V17.4397C8.79325 18.8497 7.66325 19.9997 6.25325 19.9997H2.87325C1.47325 19.9997 0.333252 18.8497 0.333252 17.4397V14.0307C0.333252 12.6107 1.47325 11.4697 2.87325 11.4697ZM17.7934 0H14.4134C13.0034 0 11.8734 1.15 11.8734 2.561V5.97C11.8734 7.39 13.0034 8.53 14.4134 8.53H17.7934C19.1934 8.53 20.3334 7.39 20.3334 5.97V2.561C20.3334 1.15 19.1934 0 17.7934 0ZM14.4134 11.4697H17.7934C19.1934 11.4697 20.3334 12.6107 20.3334 14.0307V17.4397C20.3334 18.8497 19.1934 19.9997 17.7934 19.9997H14.4134C13.0034 19.9997 11.8734 18.8497 11.8734 17.4397V14.0307C11.8734 12.6107 13.0034 11.4697 14.4134 11.4697Z" fill="url(#paint0_linear)"/>
<defs>
<linearGradient id="paint0_linear" x1="0.333252" y1="1.45452" x2="23.9479" y2="11.5179" gradientUnits="userSpaceOnUse">
<stop stop-color="#F10F47"/>
<stop offset="1" stop-color="#FF4775"/>
</linearGradient>
</defs>
</svg>
