<svg width="40" height="40" viewBox="0 0 40 40" fill="none" xmlns="http://www.w3.org/2000/svg">
<rect y="0.000244141" width="40" height="40" rx="8" fill="#F10F47"/>
<path d="M26.1666 22.3799C25.4949 22.2354 24.9635 22.5473 24.493 22.8197C24.0111 23.1003 23.0949 23.8436 22.5697 23.6534C19.8808 22.5463 17.3519 20.1928 16.2571 17.4931C16.0642 16.9567 16.804 16.0346 17.0826 15.5471C17.3529 15.0752 17.6583 14.5388 17.519 13.862C17.3932 13.2539 15.765 11.1821 15.1892 10.6156C14.8095 10.2413 14.4205 10.0355 14.0212 10.0023C12.52 9.9378 10.8433 11.941 10.5492 12.4202C9.8125 13.4421 9.81663 14.8018 10.5616 16.4505C12.3569 20.8789 19.1472 27.562 23.5922 29.4248C24.4125 29.8084 25.1626 30.0007 25.8364 30.0007C26.4957 30.0007 27.0828 29.8167 27.5874 29.4519C27.9681 29.2325 30.0534 27.4726 29.9987 25.931C29.9657 25.538 29.7604 25.1451 29.391 24.7646C28.8286 24.1835 26.7702 22.5068 26.1666 22.3799Z" fill="white"/>
</svg>
