<svg width="25" height="24" viewBox="0 0 25 24" fill="none" xmlns="http://www.w3.org/2000/svg">
<path fill-rule="evenodd" clip-rule="evenodd" d="M2.66675 10.6699C2.66675 5.88166 6.50709 2 11.2444 2C13.5193 2 15.7011 2.91344 17.3097 4.53936C18.9183 6.16529 19.822 8.37052 19.822 10.6699C19.822 15.4582 15.9817 19.3399 11.2444 19.3399C6.50709 19.3399 2.66675 15.4582 2.66675 10.6699ZM19.6801 17.6543L22.2348 19.7164H22.2791C22.796 20.2388 22.796 21.0858 22.2791 21.6082C21.7623 22.1306 20.9243 22.1306 20.4075 21.6082L18.2875 19.1785C18.087 18.9766 17.9744 18.7024 17.9744 18.4164C17.9744 18.1304 18.087 17.8562 18.2875 17.6543C18.674 17.2704 19.2936 17.2704 19.6801 17.6543Z" fill="#4256A4"/>
</svg>
