<svg width="20" height="20" viewBox="0 0 20 20" fill="none" xmlns="http://www.w3.org/2000/svg">
<path d="M19.4354 0.582227C18.9352 0.0688422 18.1949 -0.122419 17.5046 0.0789086L1.408 4.75977C0.679698 4.9621 0.163487 5.54293 0.0244302 6.2808C-0.117628 7.03175 0.378575 7.98503 1.02684 8.38366L6.0599 11.4771C6.57611 11.7941 7.24238 11.7146 7.66956 11.2838L13.4329 5.48455C13.723 5.18256 14.2032 5.18256 14.4934 5.48455C14.7835 5.77647 14.7835 6.24959 14.4934 6.55158L8.71999 12.3518C8.29181 12.7817 8.21178 13.4511 8.52691 13.9705L11.6022 19.054C11.9623 19.658 12.5826 20.0002 13.2628 20.0002C13.3429 20.0002 13.4329 20.0002 13.513 19.9902C14.2933 19.8895 14.9135 19.356 15.1436 18.601L19.9156 2.52504C20.1257 1.84052 19.9356 1.09561 19.4354 0.582227Z" fill="#3478F7"/>
</svg>
